<?xml version="1.0" encoding="utf-8"?>
<!-- Generator: Adobe Illustrator 24.1.1, SVG Export Plug-In . SVG Version: 6.00 Build 0)  -->
<svg version="1.1" id="Capa_1" xmlns="http://www.w3.org/2000/svg" xmlns:xlink="http://www.w3.org/1999/xlink" x="0px" y="0px"
	 viewBox="0 0 512 512" style="enable-background:new 0 0 512 512;" xml:space="preserve">
<style type="text/css">
	.st0{fill:#FFDD2D;}
</style>
<polyline class="st0" points="305.49,406.71 307.81,372.74 274.6,374.7 "/>
<polygon class="st0" points="206.4,141.22 239.67,141.22 244.5,141.22 210.73,107.44 "/>
<path class="st0" d="M471.25,494.8h-137.5c-16.98,0-30.75-13.77-30.75-30.75v-92c0-16.98,13.77-30.75,30.75-30.75h137.5
	c16.98,0,30.75,13.77,30.75,30.75v92C502,481.03,488.23,494.8,471.25,494.8z"/>
<path class="st0" d="M185.25,169.5H47.75C30.77,169.5,17,155.73,17,138.75v-92C17,29.77,30.77,16,47.75,16h137.5
	C202.23,16,216,29.77,216,46.75v92C216,155.73,202.23,169.5,185.25,169.5z"/>
<g>
	<g>
		<path d="M181.72,366.81c-0.72-0.21-1.46-0.32-2.21-0.36c10.95-11.51,17.7-27.07,17.7-44.17v-52.61c0-0.48-0.05-0.95-0.11-1.41
			c0.07-0.95,0.11-1.91,0.11-2.87V232.1c0-5.52-4.48-10-10-10h-67.07c-28.25,0-51.22,22.98-51.22,51.22v48.96
			c0,17.11,6.75,32.66,17.7,44.17c-0.74,0.04-1.48,0.16-2.21,0.36C37.15,371.09,0,410.92,0,459.28V502c0,5.52,4.48,10,10,10h246.13
			c5.52,0,10-4.48,10-10v-42.72C266.13,410.92,228.98,371.09,181.72,366.81z M88.92,286v-12.68c0-17.22,14.01-31.22,31.22-31.22
			h57.07v23.29c0,11.72-9.54,21.26-21.26,21.26H88.92V286z M88.92,306.64h67.04c7.77,0,15.05-2.16,21.26-5.91v21.55
			c0,24.34-19.81,44.15-44.15,44.15s-44.15-19.8-44.15-44.15V306.64z M154.83,386.43l-21.76,21.77l-21.76-21.77H154.83z M246.13,492
			L246.13,492H20v-20h41.5c5.52,0,10-4.48,10-10s-4.48-10-10-10H20.36c3.36-33.72,29.81-60.72,63.26-64.97l42.37,42.37
			c1.88,1.88,4.42,2.93,7.07,2.93c2.65,0,5.2-1.05,7.07-2.93l42.37-42.37c35.82,4.55,63.62,35.2,63.62,72.24V492z"/>
	</g>
</g>
<g>
	<g>
		<path d="M427.6,144.72c-0.72-0.21-1.46-0.32-2.21-0.36c10.95-11.51,17.7-27.07,17.7-44.17V47.57c0-0.48-0.05-0.95-0.11-1.41
			c0.07-0.95,0.11-1.91,0.11-2.87V10c0-5.52-4.48-10-10-10h-67.07c-28.24,0-51.22,22.98-51.22,51.22v48.96
			c0,17.11,6.74,32.66,17.7,44.17c-0.74,0.04-1.49,0.16-2.21,0.36c-47.26,4.28-84.4,44.11-84.4,92.46v42.72c0,5.52,4.48,10,10,10
			h80.46c5.52,0,10-4.48,10-10s-4.48-10-10-10h-70.46v-32.72c0-37.04,27.8-67.69,63.62-72.24l42.37,42.37
			c1.95,1.95,4.51,2.93,7.07,2.93s5.12-0.98,7.07-2.93l42.37-42.37c35.83,4.55,63.62,35.2,63.62,72.24v32.72h-73.67
			c-5.52,0-10,4.48-10,10s4.48,10,10,10H502c5.52,0,10-4.48,10-10v-42.72C512,188.83,474.85,149,427.6,144.72z M378.94,186.1
			l-21.77-21.76h43.53L378.94,186.1z M423.08,100.18c0,24.34-19.8,44.15-44.15,44.15s-44.15-19.8-44.15-44.15V84.55h67.04
			c7.77,0,15.05-2.16,21.26-5.91V100.18z M423.08,43.29c0,11.72-9.54,21.26-21.26,21.26h-67.04V63.9V51.22
			c0-17.22,14.01-31.22,31.22-31.22h57.07L423.08,43.29L423.08,43.29z"/>
	</g>
</g>
<g>
	<g>
		<path d="M386.01,272.83c-1.86-1.86-4.44-2.93-7.07-2.93c-2.64,0-5.21,1.07-7.07,2.93c-1.87,1.86-2.93,4.44-2.93,7.07
			c0,2.64,1.06,5.21,2.93,7.07c1.86,1.87,4.43,2.93,7.07,2.93c2.63,0,5.21-1.06,7.07-2.93c1.86-1.86,2.93-4.43,2.93-7.07
			C388.94,277.27,387.87,274.69,386.01,272.83z"/>
	</g>
</g>
<g>
	<g>
		<path d="M267.4,139.93l-41.82-41.82V50c0-27.57-22.43-50-50-50H50C22.43,0,0,22.43,0,50v88c0,27.57,22.43,50,50,50h125.58
			c20.67,0,38.7-12.41,46.27-31h38.48c4.04,0,7.69-2.44,9.24-6.17C271.12,147.09,270.26,142.79,267.4,139.93z M214.55,137
			c-4.66,0-8.7,3.22-9.75,7.76c-3.15,13.68-15.16,23.24-29.23,23.24H50c-16.54,0-30-13.46-30-30V50c0-16.54,13.46-30,30-30h125.58
			c16.54,0,30,13.46,30,30v52.25c0,2.65,1.05,5.2,2.93,7.07L236.19,137H214.55z"/>
	</g>
</g>
<g>
	<g>
		<path d="M462,324H336.42c-20.67,0-38.7,12.41-46.27,31h-38.48c-4.04,0-7.69,2.44-9.24,6.17s-0.69,8.04,2.17,10.9l41.82,41.82V462
			c0,27.57,22.43,50,50,50H462c27.57,0,50-22.43,50-50v-88C512,346.43,489.57,324,462,324z M492,462c0,16.54-13.46,30-30,30H336.42
			c-16.54,0-30-13.46-30-30v-52.25c0-2.65-1.05-5.2-2.93-7.07L275.81,375h21.64c4.66,0,8.7-3.22,9.75-7.76
			c3.15-13.68,15.17-23.24,29.23-23.24H462c16.54,0,30,13.46,30,30V462z"/>
	</g>
</g>
<g>
	<g>
		<path d="M444.16,391.39c-3.9-3.9-10.24-3.9-14.14,0l-26.58,26.58l-12.36-12.36c-3.9-3.9-10.24-3.9-14.14,0
			c-3.9,3.9-3.9,10.24,0,14.14l19.43,19.43c1.95,1.95,4.51,2.93,7.07,2.93s5.12-0.98,7.07-2.93l33.65-33.65
			C448.06,401.63,448.06,395.3,444.16,391.39z"/>
	</g>
</g>
<g>
	<g>
		<path d="M158.25,66.27c-1.18-17.15-15-30.97-32.15-32.15c-9.72-0.67-18.99,2.61-26.09,9.24c-7,6.53-11.02,15.78-11.02,25.35
			c0,5.52,4.48,10,10,10s10-4.48,10-10c0-4.11,1.66-7.92,4.66-10.73c3-2.8,6.94-4.2,11.07-3.91c7.24,0.5,13.07,6.33,13.57,13.57
			c0.51,7.32-4.29,13.79-11.41,15.38c-7.79,1.74-13.23,8.51-13.23,16.46v5.33c0,5.52,4.48,10,10,10c5.52,0,10-4.48,10-10v-2.91
			C149.16,97.29,159.38,82.68,158.25,66.27z"/>
	</g>
</g>
<g>
	<g>
		<path d="M130.74,136.02c-1.86-1.86-4.44-2.93-7.07-2.93c-2.64,0-5.21,1.07-7.07,2.93c-1.87,1.86-2.93,4.44-2.93,7.07
			s1.06,5.21,2.93,7.07c1.86,1.86,4.43,2.93,7.07,2.93c2.63,0,5.21-1.07,7.07-2.93c1.86-1.86,2.93-4.44,2.93-7.07
			S132.6,137.88,130.74,136.02z"/>
	</g>
</g>
<g>
	<g>
		<path d="M108.57,454.93c-1.86-1.86-4.44-2.93-7.07-2.93s-5.21,1.07-7.07,2.93s-2.93,4.44-2.93,7.07s1.07,5.21,2.93,7.07
			c1.86,1.86,4.44,2.93,7.07,2.93s5.21-1.07,7.07-2.93s2.93-4.44,2.93-7.07S110.43,456.79,108.57,454.93z"/>
	</g>
</g>
</svg>
