<?xml version="1.0" encoding="utf-8"?>
<!-- Generator: Adobe Illustrator 24.1.1, SVG Export Plug-In . SVG Version: 6.00 Build 0)  -->
<svg version="1.1" id="Capa_1" xmlns="http://www.w3.org/2000/svg" xmlns:xlink="http://www.w3.org/1999/xlink" x="0px" y="0px"
	 viewBox="0 0 512 512" style="enable-background:new 0 0 512 512;" xml:space="preserve">
<style type="text/css">
	.st0{fill:#FFDD2D;}
</style>
<g>
	<path class="st0" d="M156.83,484.67H25.08c-7.5,0-13.58-6.08-13.58-13.58v-222c0-7.5,6.08-13.58,13.58-13.58h131.74
		c7.5,0,13.58,6.08,13.58,13.58v222C170.41,478.58,164.33,484.67,156.83,484.67z"/>
	<g>
		<g>
			<path d="M177.48,318.98c-1.86-1.86-4.44-2.92-7.07-2.92c-2.63,0-5.21,1.06-7.07,2.92c-1.86,1.87-2.93,4.45-2.93,7.07
				c0,2.64,1.07,5.21,2.93,7.07c1.86,1.87,4.44,2.93,7.07,2.93c2.63,0,5.21-1.06,7.07-2.93c1.86-1.86,2.93-4.43,2.93-7.07
				C180.41,323.43,179.34,320.85,177.48,318.98z"/>
		</g>
	</g>
	<g>
		<g>
			<path d="M512,328.07c0-20.2-14.19-37.13-33.12-41.38c4.48-6.72,7.1-14.79,7.1-23.46c0-23.39-19.03-42.42-42.42-42.42H332.28
				l14.56-43.22c5.88-17.44,4.47-36.06-3.95-52.42c-8.42-16.36-22.76-28.32-40.36-33.68l-17.55-5.33c-5.1-1.55-10.5,1.16-12.31,6.17
				l-27.57,76.19c-7.82,21.63-23.26,39.59-43.45,50.59l-27.54,15c-5.92-8.06-15.46-13.3-26.21-13.3H10c-5.52,0-10,4.48-10,10v259.35
				c0,5.52,4.48,10,10,10h137.9c11.96,0,22.43-6.5,28.08-16.15l14.12,5.54c17.96,7.04,36.84,10.61,56.13,10.61h174.74
				c23.39,0,42.42-19.03,42.42-42.42c0-8.74-2.66-16.87-7.2-23.62c18.57-4.51,32.41-21.27,32.41-41.21c0-8.91-2.77-17.18-7.48-24.02
				C498.9,363.86,512,347.47,512,328.07z M469.58,350.49h-23.43h-45.93h-33.5c-5.52,0-10,4.48-10,10s4.48,10,10,10h33.5h45.93
				c12.36,0,22.42,10.06,22.42,22.42s-10.06,22.42-22.42,22.42h-25.2h-50.82h-3.41c-5.52,0-10,4.48-10,10s4.48,10,10,10h3.41h50.82
				c12.36,0,22.42,10.06,22.42,22.42s-10.06,22.42-22.42,22.42H246.22c-16.78,0-33.21-3.11-48.83-9.23l-16.98-6.66v-98.11
				c0-5.52-4.48-10-10-10s-10,4.48-10,10v101.48c0,6.9-5.61,12.51-12.51,12.51H20V240.81h127.9c6.9,0,12.51,5.61,12.51,12.51v33.95
				c0,5.52,4.48,10,10,10s10-4.48,10-10v-33.83l30.8-16.77c24.49-13.34,43.2-35.12,52.69-61.35l24.34-67.27l8.46,2.57
				c12.39,3.77,22.48,12.18,28.4,23.69c5.93,11.51,6.91,24.61,2.78,36.88l-19,56.41c-1.03,3.05-0.52,6.41,1.35,9.03
				c1.88,2.62,4.9,4.17,8.12,4.17h125.2c12.36,0,22.42,10.06,22.42,22.42c0,12.36-10.06,22.42-22.42,22.42h-76.83
				c-5.52,0-10,4.48-10,10s4.48,10,10,10h33.44c0.02,0,0.04,0,0.06,0h69.35c12.36,0,22.42,10.06,22.42,22.42
				C492,340.43,481.94,350.49,469.58,350.49z"/>
		</g>
	</g>
	<g>
		<g>
			<path d="M109.17,403.7c-15.44,0-28.01,12.57-28.01,28.01s12.57,28.01,28.01,28.01s28.01-12.57,28.01-28.01
				C137.18,416.26,124.62,403.7,109.17,403.7z M109.17,439.72c-4.42,0-8.01-3.59-8.01-8.01s3.59-8.01,8.01-8.01s8.01,3.59,8.01,8.01
				C117.18,436.12,113.59,439.72,109.17,439.72z"/>
		</g>
	</g>
	<g>
		<g>
			<path d="M298.82,11.83c-5.52,0-10,5.86-10,13.08v31.84c0,7.22,4.48,13.08,10,13.08s10-5.86,10-13.08V24.92
				C308.82,17.69,304.34,11.83,298.82,11.83z"/>
		</g>
	</g>
	<g>
		<g>
			<path d="M430.06,119.43h-61.67c-5.52,0-10,4.48-10,10c0,5.52,4.48,10,10,10h61.67c5.52,0,10-4.48,10-10
				C440.06,123.91,435.58,119.43,430.06,119.43z"/>
		</g>
	</g>
	<g>
		<g>
			<path d="M229.22,119.41h-61.67c-5.52,0-10,4.48-10,10c0,5.52,4.48,10,10,10h61.67c5.52,0,10-4.48,10-10
				C239.22,123.88,234.74,119.41,229.22,119.41z"/>
		</g>
	</g>
	<g>
		<g>
			<path d="M249.35,65.8l-29.12-29.11c-3.91-3.9-10.24-3.9-14.14,0c-3.9,3.9-3.9,10.24,0,14.14l29.12,29.11
				c1.95,1.95,4.51,2.93,7.07,2.93s5.12-0.98,7.07-2.93C253.25,76.04,253.25,69.71,249.35,65.8z"/>
		</g>
	</g>
	<g>
		<g>
			<path d="M391.54,36.7c-3.91-3.9-10.24-3.9-14.14,0l-29.11,29.11c-3.9,3.9-3.9,10.24,0,14.14c1.95,1.95,4.51,2.93,7.07,2.93
				s5.12-0.98,7.07-2.93l29.11-29.11C395.45,46.94,395.45,40.61,391.54,36.7z"/>
		</g>
	</g>
</g>
</svg>
