<?xml version="1.0" encoding="utf-8"?>
<!-- Generator: Adobe Illustrator 24.1.1, SVG Export Plug-In . SVG Version: 6.00 Build 0)  -->
<svg version="1.1" id="Capa_1" xmlns="http://www.w3.org/2000/svg" xmlns:xlink="http://www.w3.org/1999/xlink" x="0px" y="0px"
	 viewBox="0 0 512 512" style="enable-background:new 0 0 512 512;" xml:space="preserve">
<style type="text/css">
	.st0{fill:#FFDD2D;}
</style>
<g>
	<circle class="st0" cx="256" cy="210.32" r="30.88"/>
	<rect x="106.45" y="301" class="st0" width="52.33" height="93.33"/>
	<rect x="350.62" y="303.67" class="st0" width="50.5" height="93.33"/>
	<rect x="205.12" y="301" class="st0" width="103" height="192"/>
	<g>
		<g>
			<path d="M502,492h-44v-79c0-5.52-4.48-10-10-10s-10,4.48-10,10v79H318V302c0-5.52-4.48-10-10-10H204c-5.52,0-10,4.48-10,10v190
				H74V266h3.85c2.65,0,5.19-1.05,7.07-2.93L256,91.99l171.08,171.08c1.88,1.88,4.42,2.93,7.07,2.93H438v75c0,5.52,4.48,10,10,10
				s10-4.48,10-10v-75h44c4.05,0,7.69-2.44,9.24-6.17c1.55-3.74,0.69-8.04-2.17-10.9l-246-246c-3.91-3.9-10.24-3.9-14.14,0l-94,94
				c-3.9,3.9-3.9,10.24,0,14.14c3.91,3.91,10.24,3.91,14.14,0L256,24.14L477.86,246h-39.56L263.07,70.78
				c-3.91-3.9-10.24-3.9-14.14,0L73.71,246H34.14l78.93-78.93c3.9-3.9,3.9-10.24,0-14.14c-3.9-3.9-10.24-3.9-14.14,0l-96,96
				c-2.86,2.86-3.72,7.16-2.17,10.9S5.96,266,10,266h44v226H10c-5.52,0-10,4.48-10,10s4.48,10,10,10h54h140h104h140h54
				c5.52,0,10-4.48,10-10S507.52,492,502,492z M298,492h-84V312h84V492z"/>
		</g>
	</g>
	<g>
		<g>
			<path d="M406,292h-56c-5.52,0-10,4.48-10,10v100c0,5.52,4.48,10,10,10h56c5.52,0,10-4.48,10-10V302
				C416,296.48,411.52,292,406,292z M396,392h-36v-80h36V392z"/>
		</g>
	</g>
	<g>
		<g>
			<path d="M162,292h-56c-5.52,0-10,4.48-10,10v100c0,5.52,4.48,10,10,10h56c5.52,0,10-4.48,10-10V302
				C172,296.48,167.52,292,162,292z M152,392h-36v-80h36V392z"/>
		</g>
	</g>
	<g>
		<g>
			<path d="M256,164.32c-25.36,0-46,20.64-46,46s20.64,46,46,46s46-20.64,46-46S281.36,164.32,256,164.32z M256,236.32
				c-14.34,0-26-11.66-26-26s11.66-26,26-26s26,11.66,26,26S270.34,236.32,256,236.32z"/>
		</g>
	</g>
	<g>
		<g>
			<path d="M244.07,394.93c-1.86-1.86-4.44-2.93-7.07-2.93c-2.63,0-5.21,1.07-7.07,2.93S227,399.37,227,402s1.07,5.21,2.93,7.07
				c1.86,1.86,4.44,2.93,7.07,2.93s5.21-1.07,7.07-2.93c1.86-1.86,2.93-4.44,2.93-7.07S245.93,396.79,244.07,394.93z"/>
		</g>
	</g>
	<g>
		<g>
			<path d="M140.07,125.93c-1.86-1.86-4.44-2.93-7.07-2.93s-5.21,1.07-7.07,2.93S123,130.37,123,133s1.07,5.21,2.93,7.07
				S130.37,143,133,143s5.21-1.07,7.07-2.93c1.86-1.86,2.93-4.44,2.93-7.07S141.93,127.79,140.07,125.93z"/>
		</g>
	</g>
	<g>
		<g>
			<path d="M455.07,367.26c-1.86-1.86-4.44-2.93-7.07-2.93c-2.63,0-5.21,1.07-7.07,2.93c-1.86,1.87-2.93,4.44-2.93,7.07
				s1.07,5.21,2.93,7.08c1.86,1.86,4.44,2.92,7.07,2.92s5.21-1.06,7.07-2.92c1.86-1.87,2.93-4.44,2.93-7.08
				C458,371.7,456.93,369.12,455.07,367.26z"/>
		</g>
	</g>
</g>
</svg>
