<?xml version="1.0" encoding="utf-8"?>
<!-- Generator: Adobe Illustrator 24.1.1, SVG Export Plug-In . SVG Version: 6.00 Build 0)  -->
<svg version="1.1" id="Capa_1" xmlns="http://www.w3.org/2000/svg" xmlns:xlink="http://www.w3.org/1999/xlink" x="0px" y="0px"
	 viewBox="0 0 512 512" style="enable-background:new 0 0 512 512;" xml:space="preserve">
<style type="text/css">
	.st0{fill:#FFDD2D;}
</style>
<path class="st0" d="M217.51,426.33h-61.03c-3.36,0-6.08-2.72-6.08-6.08v-58.74c0-3.36,2.72-6.08,6.08-6.08h61.03
	c3.36,0,6.08,2.72,6.08,6.08v58.74C223.59,423.61,220.87,426.33,217.51,426.33z"/>
<path class="st0" d="M217.51,324h-61.03c-3.36,0-6.08-2.72-6.08-6.08v-58.74c0-3.36,2.72-6.08,6.08-6.08h61.03
	c3.36,0,6.08,2.72,6.08,6.08v58.74C223.59,321.28,220.87,324,217.51,324z"/>
<path class="st0" d="M217.51,219.67h-61.03c-3.36,0-6.08-2.72-6.08-6.08v-58.74c0-3.36,2.72-6.08,6.08-6.08h61.03
	c3.36,0,6.08,2.72,6.08,6.08v58.74C223.59,216.94,220.87,219.67,217.51,219.67z"/>
<g>
	<path d="M219.26,355.16l-28.07,28.27c-0.36,0.36-0.78,0.44-1.06,0.44h0c-0.28,0-0.7-0.08-1.06-0.44l-10.43-10.43
		c-2.93-2.93-7.68-2.93-10.61,0c-2.93,2.93-2.93,7.68,0,10.61l10.43,10.43c3.12,3.12,7.26,4.83,11.67,4.83h0.03
		c4.42-0.01,8.57-1.74,11.68-4.87l28.07-28.27c2.92-2.94,2.9-7.69-0.04-10.61C226.92,352.2,222.17,352.22,219.26,355.16
		L219.26,355.16z M229.86,150.93c-2.94-2.92-7.69-2.9-10.61,0.04l-28.07,28.27c-0.36,0.37-0.78,0.44-1.06,0.44h0
		c-0.28,0-0.7-0.08-1.06-0.44l-10.43-10.43c-2.93-2.93-7.68-2.93-10.61,0s-2.93,7.68,0,10.61l10.43,10.43
		c3.12,3.12,7.26,4.83,11.67,4.83h0.03c4.42-0.01,8.57-1.74,11.68-4.87l28.07-28.27C232.82,158.6,232.8,153.85,229.86,150.93z
		 M229.86,253.03c-2.94-2.92-7.69-2.9-10.61,0.04l-28.07,28.27c-0.36,0.36-0.78,0.44-1.06,0.44h0c-0.28,0-0.7-0.08-1.06-0.44
		l-10.43-10.43c-2.93-2.93-7.68-2.93-10.61,0c-2.93,2.93-2.93,7.68,0,10.61l10.43,10.43c3.12,3.12,7.26,4.83,11.67,4.83h0.03
		c4.42-0.01,8.57-1.74,11.68-4.87l28.07-28.27C232.82,260.69,232.8,255.94,229.86,253.03L229.86,253.03z M182.85,142.54H158.4
		c-9.1,0-16.5,7.4-16.5,16.5v54.1c0,9.1,7.4,16.5,16.5,16.5h54.1c9.1,0,16.5-7.4,16.5-16.5v-18.98c0-4.14-3.36-7.5-7.5-7.5
		s-7.5,3.36-7.5,7.5v18.98c0,0.83-0.67,1.5-1.5,1.5h-54.1c-0.83,0-1.5-0.67-1.5-1.5v-54.1c0-0.83,0.67-1.5,1.5-1.5h24.45
		c4.14,0,7.5-3.36,7.5-7.5S186.99,142.54,182.85,142.54z M412.86,15.4h-34.38c-4.14,0-7.5,3.36-7.5,7.5s3.36,7.5,7.5,7.5h34.38
		c12.34,0,22.38,10.04,22.38,22.38v421.84c0,12.34-10.04,22.38-22.38,22.38H99.14c-12.34,0-22.38-10.04-22.38-22.38V52.78
		c0-12.34,10.04-22.38,22.38-22.38h56.8v14.88h-51.82c-6.88,0-12.48,5.6-12.48,12.48v308.85c0,4.14,3.36,7.5,7.5,7.5
		s7.5-3.36,7.5-7.5V60.28h35.64c-0.82,2.33-1.27,4.83-1.27,7.44v20.8c0,12.37,10.07,22.44,22.44,22.44h185.11
		c12.37,0,22.44-10.07,22.44-22.44v-20.8c0-2.61-0.45-5.11-1.27-7.44h35.64v328.83h-38.92c-20.61,0-37.38,16.77-37.38,37.38v38.93
		H106.64v-68.81c0-4.14-3.36-7.5-7.5-7.5s-7.5,3.36-7.5,7.5v71.33c0,6.88,5.6,12.48,12.48,12.48h232.44c1.99,0,3.9-0.8,5.3-2.2
		l0.02-0.02l76.28-76.29c1.28-1.28,2.06-3.02,2.17-4.82c0-0.07,0.02-339.16,0.02-339.33c0-6.88-5.6-12.48-12.48-12.48h-51.82V24.47
		C356.06,10.98,345.08,0,331.59,0H180.41c-10.29,0-19.11,6.39-22.72,15.4H99.14c-20.61,0-37.38,16.77-37.38,37.38v421.84
		c0,20.61,16.77,37.38,37.38,37.38h313.72c20.61,0,37.38-16.77,37.38-37.38V52.78C450.24,32.17,433.47,15.4,412.86,15.4z
		 M344.06,454.81v-28.32c0-12.34,10.04-22.38,22.38-22.38h28.31L344.06,454.81z M170.94,24.47c0-5.22,4.25-9.47,9.47-9.47h151.17
		c5.22,0,9.47,4.25,9.47,9.47v27.52c0,5.22-4.25,9.47-9.47,9.47H180.41c-5.22,0-9.47-4.25-9.47-9.47L170.94,24.47z M156,67.72
		c0-2.09,0.87-3.98,2.26-5.33c3.91,8.31,12.37,14.08,22.15,14.08h151.17c9.78,0,18.23-5.77,22.15-14.08
		c1.39,1.35,2.26,3.24,2.26,5.33v20.8c0,4.1-3.34,7.44-7.44,7.44H163.44c-4.1,0-7.44-3.34-7.44-7.44L156,67.72z M141.9,315.24
		c0,9.1,7.4,16.5,16.5,16.5h54.1c9.1,0,16.5-7.4,16.5-16.5v-18.98c0-4.14-3.36-7.5-7.5-7.5s-7.5,3.36-7.5,7.5v18.98
		c0,0.83-0.67,1.5-1.5,1.5h-54.1c-0.83,0-1.5-0.67-1.5-1.5v-54.1c0-0.83,0.67-1.5,1.5-1.5h24.45c4.14,0,7.5-3.36,7.5-7.5
		s-3.36-7.5-7.5-7.5H158.4c-9.1,0-16.5,7.4-16.5,16.5V315.24z M255.63,361.74H362.6c4.14,0,7.5-3.36,7.5-7.5s-3.36-7.5-7.5-7.5
		H255.63c-4.14,0-7.5,3.36-7.5,7.5S251.48,361.74,255.63,361.74L255.63,361.74z M141.9,417.33c0,9.1,7.4,16.5,16.5,16.5h54.1
		c9.1,0,16.5-7.4,16.5-16.5v-18.98c0-4.14-3.36-7.5-7.5-7.5s-7.5,3.36-7.5,7.5v18.98c0,0.83-0.67,1.5-1.5,1.5h-54.1
		c-0.83,0-1.5-0.67-1.5-1.5v-54.1c0-0.83,0.67-1.5,1.5-1.5h24.45c4.14,0,7.5-3.36,7.5-7.5s-3.36-7.5-7.5-7.5H158.4
		c-9.1,0-16.5,7.4-16.5,16.5V417.33z M255.63,391.74h61.97c4.14,0,7.5-3.36,7.5-7.5s-3.36-7.5-7.5-7.5h-61.97
		c-4.14,0-7.5,3.36-7.5,7.5S251.48,391.74,255.63,391.74L255.63,391.74z M255.63,289.64h61.97c4.14,0,7.5-3.36,7.5-7.5
		s-3.36-7.5-7.5-7.5h-61.97c-4.14,0-7.5,3.36-7.5,7.5S251.48,289.64,255.63,289.64L255.63,289.64z M255.63,259.64H362.6
		c4.14,0,7.5-3.36,7.5-7.5s-3.36-7.5-7.5-7.5H255.63c-4.14,0-7.5,3.36-7.5,7.5S251.48,259.64,255.63,259.64L255.63,259.64z
		 M255.63,187.54H362.6c4.14,0,7.5-3.36,7.5-7.5s-3.36-7.5-7.5-7.5H255.63c-4.14,0-7.5,3.36-7.5,7.5S251.48,187.54,255.63,187.54
		L255.63,187.54z M255.63,157.54H362.6c4.14,0,7.5-3.36,7.5-7.5s-3.36-7.5-7.5-7.5H255.63c-4.14,0-7.5,3.36-7.5,7.5
		S251.48,157.54,255.63,157.54L255.63,157.54z"/>
</g>
</svg>
