<?xml version="1.0" encoding="utf-8"?>
<!-- Generator: Adobe Illustrator 24.1.1, SVG Export Plug-In . SVG Version: 6.00 Build 0)  -->
<svg version="1.1" id="Capa_1" xmlns="http://www.w3.org/2000/svg" xmlns:xlink="http://www.w3.org/1999/xlink" x="0px" y="0px"
	 viewBox="0 0 512 512" style="enable-background:new 0 0 512 512;" xml:space="preserve">
<style type="text/css">
	.st0{fill:#FFDD2D;}
</style>
<g>
	<path class="st0" d="M360.61,252.53l-153.09,148c-10.92,10.56-28.33,10.26-38.89-0.66l-88.78-91.83
		c-10.56-10.92-10.26-28.33,0.66-38.89l153.09-148c10.92-10.56,28.33-10.26,38.89,0.66l88.78,91.83
		C371.83,224.56,371.53,241.97,360.61,252.53z"/>
	<path d="M478,106.53h-20.02L458,70.74c0.01-24.03-19.52-43.59-43.55-43.6l-151.94-0.09c-0.01,0-0.01,0-0.02,0
		c-8.65,0-16.78,3.37-22.9,9.48L12.76,263.37C4.53,271.6,0,282.54,0,294.18S4.53,316.77,12.76,325l147.2,147.2
		c8.5,8.5,19.66,12.74,30.81,12.74c11.16,0,22.32-4.25,30.82-12.74l142.81-142.81c3.91-3.91,3.91-10.24,0-14.14
		c-3.91-3.91-10.24-3.91-14.14,0L207.45,458.06c-9.19,9.19-24.15,9.19-33.34,0l-147.2-147.2C22.45,306.4,20,300.48,20,294.18
		s2.45-12.22,6.91-16.67L253.73,50.69c2.34-2.34,5.45-3.63,8.76-3.63h0.01l151.94,0.09c13,0,23.57,10.59,23.57,23.59l-0.05,83.8
		h-45.04c-3.88,0-7.39-1.59-9.93-4.14c4.18-1.79,8.11-4.38,11.52-7.79c14.37-14.38,14.37-37.76,0-52.13
		c-14.38-14.38-37.76-14.38-52.13,0c-14.37,14.37-14.37,37.75,0,52.13c5.33,5.33,11.9,8.68,18.79,10.05
		c4.89,12.78,17.28,21.88,31.76,21.88h45.03l-0.03,47.94c0,3.31-1.29,6.41-3.63,8.75l-27.45,27.46c-3.91,3.91-3.91,10.24,0,14.14
		c3.9,3.9,10.23,3.9,14.14,0l27.46-27.46c6.11-6.11,9.48-14.24,9.48-22.88l0.03-47.95H478c18.75,0,34-15.25,34-34
		C512,121.79,496.75,106.53,478,106.53z M356.51,104.61c3.29-3.29,7.61-4.93,11.93-4.93c4.32,0,8.63,1.64,11.92,4.93
		c1.04,1.04,1.9,2.2,2.61,3.41c-10.98,3.36-19.6,12.15-22.75,23.22c-1.32-0.74-2.58-1.66-3.7-2.78
		C349.93,121.88,349.93,111.18,356.51,104.61z M478,154.53h-20.05l0.02-28H478c7.72,0,14,6.28,14,14S485.72,154.53,478,154.53z"/>
	<path d="M161.41,279.36c1.23,4.43,5.25,7.32,9.63,7.32c0.89,0,1.79-0.12,2.69-0.37l102.66-28.57c5.32-1.48,8.43-7,6.95-12.32
		c-1.48-5.32-6.99-8.43-12.32-6.95l-102.66,28.57C163.05,268.53,159.93,274.04,161.41,279.36z"/>
	<path d="M206.6,292.56c-5.57,5.57-8.64,12.97-8.64,20.85c0,7.88,3.07,15.28,8.64,20.85c5.75,5.75,13.3,8.62,20.85,8.62
		s15.1-2.88,20.85-8.62c11.5-11.5,11.5-30.2,0-41.7S218.1,281.06,206.6,292.56z M234.16,320.11c-3.7,3.7-9.71,3.7-13.41,0
		c-1.79-1.79-2.78-4.17-2.78-6.71c0-2.53,0.99-4.91,2.78-6.71c1.85-1.85,4.28-2.77,6.71-2.77c2.43,0,4.86,0.93,6.71,2.77
		C237.86,310.4,237.86,316.42,234.16,320.11z"/>
	<path d="M253.25,233.02c11.5-11.5,11.5-30.2,0-41.7c-5.57-5.57-12.98-8.64-20.85-8.64s-15.28,3.07-20.85,8.64
		c-11.5,11.5-11.5,30.2,0,41.7c5.75,5.75,13.3,8.62,20.85,8.62S247.5,238.77,253.25,233.02z M225.7,205.46
		c1.79-1.79,4.18-2.78,6.71-2.78c2.54,0,4.92,0.98,6.71,2.78c3.7,3.7,3.7,9.71,0,13.41c-3.7,3.7-9.71,3.7-13.41,0
		C222,215.18,222,209.16,225.7,205.46z"/>
	<path d="M99.46,258.7c-3.91-3.91-10.24-3.91-14.14,0L56.9,287.11c-1.88,1.88-2.93,4.42-2.93,7.07s1.05,5.2,2.93,7.07l126.81,126.81
		c1.95,1.95,4.51,2.93,7.07,2.93s5.12-0.98,7.07-2.93l189.59-189.6c3.91-3.91,3.91-10.24,0-14.14l-126.8-126.8
		c-1.88-1.88-4.42-2.93-7.07-2.93s-5.2,1.05-7.07,2.93L141.89,202.13c-3.91,3.91-3.91,10.24,0,14.14c3.9,3.9,10.23,3.9,14.14,0
		l97.54-97.54l112.66,112.66L190.78,406.85L78.12,294.18l21.34-21.34C103.36,268.93,103.37,262.61,99.46,258.7z"/>
	<path d="M385.62,284.03c-2.63,0-5.21,1.07-7.07,2.93s-2.93,4.44-2.93,7.07s1.07,5.21,2.93,7.07s4.44,2.93,7.07,2.93
		c2.63,0,5.21-1.07,7.07-2.93c1.86-1.86,2.93-4.44,2.93-7.07s-1.07-5.21-2.93-7.07C390.83,285.1,388.25,284.03,385.62,284.03z"/>
	<path d="M127.74,244.55c1.87-1.86,2.93-4.43,2.93-7.07c0-2.63-1.06-5.2-2.93-7.07c-1.86-1.86-4.43-2.93-7.07-2.93
		c-2.63,0-5.21,1.07-7.07,2.93c-1.86,1.86-2.93,4.44-2.93,7.07c0,2.64,1.07,5.21,2.93,7.07c1.87,1.87,4.44,2.93,7.07,2.93
		C123.31,247.48,125.88,246.42,127.74,244.55z"/>
</g>
</svg>
