<?xml version="1.0" encoding="utf-8"?>
<!-- Generator: Adobe Illustrator 24.1.1, SVG Export Plug-In . SVG Version: 6.00 Build 0)  -->
<svg version="1.1" id="Capa_1" xmlns="http://www.w3.org/2000/svg" xmlns:xlink="http://www.w3.org/1999/xlink" x="0px" y="0px"
	 viewBox="0 0 512 512" style="enable-background:new 0 0 512 512;" xml:space="preserve">
<style type="text/css">
	.st0{fill:#FFDD2D;}
</style>
<g>
	<circle class="st0" cx="247.06" cy="294.73" r="162.4"/>
	<g>
		<g>
			<path d="M368.41,463.07c-3.02-4.63-9.21-5.94-13.84-2.92C322.59,480.99,285.41,492,247.05,492
				c-108.77,0-197.27-88.49-197.27-197.27c0-39.5,11.63-77.61,33.63-110.21c3.09-4.58,1.88-10.79-2.69-13.88
				c-4.58-3.09-10.79-1.88-13.88,2.7c-24.24,35.92-37.05,77.9-37.05,121.4c0,58.03,22.6,112.59,63.64,153.63S189.02,512,247.05,512
				c42.24,0,83.19-12.13,118.44-35.09C370.12,473.9,371.43,467.7,368.41,463.07z"/>
		</g>
	</g>
	<g>
		<g>
			<path d="M402.01,432.75c-3.94-3.87-10.27-3.8-14.14,0.14l-0.33,0.34c-3.89,3.92-3.86,10.25,0.05,14.14
				c1.95,1.93,4.5,2.9,7.04,2.9c2.57,0,5.14-0.99,7.1-2.96l0.41-0.42C406.01,442.95,405.95,436.62,402.01,432.75z"/>
		</g>
	</g>
	<g>
		<g>
			<path d="M442.51,163.89c1.95,1.95,4.51,2.93,7.07,2.93c2.56,0,5.12-0.98,7.07-2.93l16.66-16.66c11.87-11.87,11.87-31.19,0-43.06
				l-35.7-35.7c-5.75-5.75-13.4-8.92-21.53-8.92c-8.13,0-15.78,3.17-21.53,8.92L377.9,85.13c-1.88,1.88-2.93,4.42-2.93,7.07
				s1.05,5.2,2.93,7.07l4.73,4.73l-11.98,11.98c-25.41-17.65-54.14-29.55-84.59-35.04V64h22c5.52,0,10-4.48,10-10V10
				c0-5.52-4.48-10-10-10H186.05c-5.52,0-10,4.48-10,10v44c0,5.52,4.48,10,10,10h22v16.96c-28.62,5.19-55.93,16.09-80.46,32.26
				c-4.61,3.04-5.88,9.24-2.84,13.86c3.04,4.61,9.24,5.88,13.85,2.84c32.2-21.24,69.7-32.46,108.45-32.46
				c108.77,0,197.27,88.49,197.27,197.27c0,36.89-10.24,72.86-29.62,104.02c-2.92,4.69-1.48,10.86,3.21,13.77
				c1.64,1.02,3.47,1.51,5.27,1.51c3.34,0,6.61-1.67,8.5-4.72c21.35-34.33,32.64-73.96,32.64-114.58
				c0-44.81-13.49-87.55-38.52-123.59l11.98-11.98L442.51,163.89z M266.06,78.3c-6.28-0.54-12.62-0.83-19-0.83
				c-6.37,0-12.71,0.28-19,0.83V64h38L266.06,78.3L266.06,78.3z M218.05,44h-22V20h102v24h-22H218.05z M413.53,155.12
				c-4.06-4.82-8.34-9.51-12.85-14.02c-4.51-4.51-9.2-8.79-14.02-12.85l10.11-10.11l26.87,26.87L413.53,155.12z M403.84,96.93
				C403.84,96.93,403.84,96.93,403.84,96.93l-4.73-4.73l9.59-9.59c1.97-1.97,4.6-3.06,7.39-3.06c2.79,0,5.41,1.09,7.39,3.06
				l35.7,35.7c4.07,4.07,4.07,10.7,0,14.77l-9.59,9.59l-4.71-4.71c-0.01-0.01-0.01-0.01-0.01-0.01L403.84,96.93z"/>
		</g>
	</g>
	<g>
		<g>
			<path d="M247.06,152.99c-5.52,0-10,4.48-10,10v22c0,5.52,4.48,10,10,10c5.52,0,10-4.48,10-10v-22
				C257.06,157.47,252.58,152.99,247.06,152.99z"/>
		</g>
	</g>
	<g>
		<g>
			<path d="M347.28,194.51c-1.86-1.86-4.44-2.93-7.07-2.93c-2.63,0-5.21,1.07-7.07,2.93c-1.86,1.86-2.93,4.44-2.93,7.07
				c0,2.64,1.07,5.21,2.93,7.07c1.86,1.86,4.44,2.93,7.07,2.93c2.63,0,5.21-1.07,7.07-2.93c1.86-1.86,2.93-4.44,2.93-7.07
				S349.14,196.37,347.28,194.51z"/>
		</g>
	</g>
	<g>
		<g>
			<path d="M378.8,284.73h-22c-5.52,0-10,4.48-10,10s4.48,10,10,10h22c5.52,0,10-4.48,10-10S384.32,284.73,378.8,284.73z"/>
		</g>
	</g>
	<g>
		<g>
			<path d="M347.28,380.81c-1.86-1.86-4.44-2.93-7.07-2.93c-2.63,0-5.21,1.07-7.07,2.93c-1.86,1.86-2.93,4.44-2.93,7.07
				c0,2.64,1.07,5.22,2.93,7.07c1.86,1.87,4.44,2.93,7.07,2.93c2.63,0,5.21-1.06,7.07-2.93c1.86-1.86,2.93-4.43,2.93-7.07
				C350.21,385.25,349.14,382.68,347.28,380.81z"/>
		</g>
	</g>
	<g>
		<g>
			<path d="M247.06,394.47c-5.52,0-10,4.48-10,10v22c0,5.52,4.48,10,10,10s10-4.48,10-10v-22
				C257.06,398.95,252.58,394.47,247.06,394.47z"/>
		</g>
	</g>
	<g>
		<g>
			<path d="M160.97,380.81c-1.86-1.86-4.44-2.93-7.07-2.93s-5.21,1.07-7.07,2.93c-1.86,1.86-2.93,4.44-2.93,7.07
				c0,2.64,1.07,5.21,2.93,7.07c1.86,1.87,4.44,2.93,7.07,2.93s5.21-1.06,7.07-2.93c1.86-1.86,2.93-4.43,2.93-7.07
				C163.9,385.25,162.83,382.67,160.97,380.81z"/>
		</g>
	</g>
	<g>
		<g>
			<path d="M137.31,284.73h-22c-5.52,0-10,4.48-10,10s4.48,10,10,10h22c5.52,0,10-4.48,10-10
				C147.32,289.21,142.84,284.73,137.31,284.73z"/>
		</g>
	</g>
	<g>
		<g>
			<path d="M160.97,194.51c-1.86-1.86-4.44-2.93-7.07-2.93s-5.21,1.07-7.07,2.93c-1.86,1.86-2.93,4.44-2.93,7.07
				s1.07,5.21,2.93,7.07c1.86,1.86,4.44,2.93,7.07,2.93s5.21-1.07,7.07-2.93c1.86-1.86,2.93-4.44,2.93-7.07
				S162.83,196.37,160.97,194.51z"/>
		</g>
	</g>
	<g>
		<g>
			<path d="M325.13,216.65c-3.26-3.26-8.31-3.87-12.25-1.48l-82.55,49.97c-0.89,0.51-2.14,1.24-2.99,1.91
				c-8.64,6.17-14.29,16.27-14.29,27.68c0,18.75,15.25,34,34,34c11.36,0,21.43-5.61,27.61-14.19c0.74-0.92,1.43-2.12,1.99-3.11
				l49.96-82.53C329,224.97,328.39,219.91,325.13,216.65z M259.42,301.28l-0.83,1.36c-2.53,3.67-6.76,6.09-11.54,6.09
				c-7.72,0-14-6.28-14-14c0-4.79,2.42-9.02,6.1-11.55l1.36-0.82c1.96-1.04,4.18-1.63,6.55-1.63c7.72,0,14,6.28,14,14
				C261.05,297.1,260.46,299.32,259.42,301.28z M275.05,275.47c-2.36-3.41-5.32-6.37-8.73-8.73l22.11-13.39L275.05,275.47z"/>
		</g>
	</g>
	<g>
		<g>
			<path d="M247.06,121.5c-95.52,0-173.24,77.71-173.24,173.24s77.71,173.24,173.24,173.24s173.24-77.71,173.24-173.24
				S342.58,121.5,247.06,121.5z M247.06,447.97c-84.49,0-153.24-68.74-153.24-153.23S162.56,141.5,247.06,141.5
				c84.49,0,153.23,68.74,153.23,153.24S331.55,447.97,247.06,447.97z"/>
		</g>
	</g>
	<g>
		<g>
			<path d="M108.18,140.49c-1.86-1.86-4.44-2.93-7.07-2.93s-5.21,1.07-7.07,2.93c-1.86,1.86-2.93,4.44-2.93,7.07
				c0,2.64,1.07,5.21,2.93,7.07c1.86,1.86,4.44,2.93,7.07,2.93s5.21-1.07,7.07-2.93c1.86-1.86,2.93-4.44,2.93-7.07
				C111.11,144.94,110.04,142.36,108.18,140.49z"/>
		</g>
	</g>
</g>
</svg>
