<?xml version="1.0" encoding="utf-8"?>
<!-- Generator: Adobe Illustrator 24.1.1, SVG Export Plug-In . SVG Version: 6.00 Build 0)  -->
<svg version="1.1" id="Capa_1" xmlns="http://www.w3.org/2000/svg" xmlns:xlink="http://www.w3.org/1999/xlink" x="0px" y="0px"
	 viewBox="0 0 512 512" style="enable-background:new 0 0 512 512;" xml:space="preserve">
<style type="text/css">
	.st0{fill:#FFDD2D;}
	.st1{fill:#FFFFFF;}
</style>
<g>
	<path class="st0" d="M65.69,348.45c16.71-25.96,34.49-34.13,53.33-41.24c18.84-7.11,55.11-21.33,55.11-21.33
		s4.98,37.69,17.78,59.02c12.8,21.33,34.84,49.07,44.8,53.69s9.96,4.62,9.96,4.62s25.24-14.93,36.98-30.22
		c11.73-15.29,24.18-30.58,28.09-50.84c3.91-20.27,6.4-36.27,6.4-36.27l90.67,35.2c0,0-38.4,22.76-40.53,27.38
		c-2.13,4.62-2.13,54.4-1.07,57.95c1.07,3.56,9.6,12.44,16.71,12.09c7.11-0.36,46.93,0.01,46.93,0.01l6.4-9.61l3.2,90.67
		l-305.42,3.56c0,0,5.69-55.3,3.91-77.96s-9.6-55.02-26.31-66.39S65.69,348.45,65.69,348.45z"/>
	<path class="st1" d="M288.44,496.89c-5.33-11.73-7.29-15.11,3.2-25.6c10.49-10.49,32.89-32.53,38.4-34.67
		c5.51-2.13,13.16-3.38,16.53,4.62c3.38,8,11.56,9.42,2.84,21.16c-8.71,11.73-45.15,45.33-49.07,43.02
		C296.44,503.11,288.44,496.89,288.44,496.89z"/>
	<path class="st0" d="M156,105.96c5.69-54.04,28.44-76.85,54.04-80.2s22.76,0,22.76,0s-0.71-17.41,7.47-17.14
		c8.18,0.27,17.78-3.64,20.98,5.25s2.84,11.89,2.84,11.89s9.96-4.83,23.47,0s40.89,17.27,49.07,38.96
		c8.18,21.69,3.91,46.58,3.91,46.58L156,105.96z"/>
	<rect x="143.2" y="115.21" class="st0" width="211.2" height="27.38"/>
	<g id="Original">
		<path d="M453.04,512V387.23l14.64-54.9c3.65-13.66-4.47-27.69-18.13-31.33c-6.59-1.76-13.61-0.82-19.51,2.62l-17.28,10.08
			c-5.83-4.13-12.12-7.58-18.74-10.28l-65.01-26c9.75-11.75,16.46-25.72,19.52-40.68l22.09-11.04c8.69-4.31,14.18-13.19,14.15-22.9
			v-6.52c-0.02-14.13-11.47-25.58-25.6-25.6h-8.53v-18.64c13.27-4.63,20.28-19.14,15.65-32.41c-2.56-7.33-8.32-13.09-15.65-15.65
			V93.87c-0.05-42.4-34.4-76.75-76.8-76.8h-1.57C267.64,3.8,253.13-3.2,239.86,1.43c-7.33,2.56-13.09,8.32-15.65,15.65h-1.57
			c-42.4,0.05-76.75,34.4-76.8,76.8v10.11c-13.27,4.63-20.28,19.14-15.65,32.41c2.56,7.33,8.32,13.09,15.65,15.65v18.64h-8.53
			c-14.13,0.02-25.58,11.47-25.6,25.6v6.52c-0.03,9.7,5.46,18.58,14.15,22.9l22.09,11.04c3.06,14.96,9.77,28.93,19.52,40.68
			l-65.02,26.01c-35.72,14.15-59.13,48.73-59.01,87.15V512H453.04z M145.84,443.73h93.87v17.07h-93.87V443.73z M287.38,460.8h-30.6
			v-17.07h47.67L287.38,460.8z M145.84,477.87h93.87v17.07h-93.87V477.87z M256.78,477.87h18.26c-1.79,5.59-1.56,11.63,0.66,17.07
			h-18.92V477.87z M290.91,485.37c-0.01-2.54,1-4.98,2.8-6.77l33.83-33.83c3.33-3.33,8.73-3.33,12.07,0l1.47,1.47
			c3.33,3.32,3.33,8.72,0.01,12.05c0,0-0.01,0.01-0.01,0.01l-33.83,33.84c-3.74,3.74-9.8,3.73-13.53-0.01
			C291.92,490.33,290.91,487.9,290.91,485.37z M373.81,424.1c3.42,1.67,7.17,2.54,10.97,2.57h38.09c4.62-0.02,9.16-1.3,13.11-3.7
			v37.83h-76.89c2.51-6.71,1.96-14.19-1.52-20.46L373.81,424.1z M328.58,494.93l17.07-17.07h90.33v17.07H328.58z M438.65,318.37
			c1.29-0.78,2.77-1.2,4.28-1.22c1.88,0.03,3.7,0.66,5.2,1.8c2.79,2.07,4.01,5.64,3.07,8.98L436.24,384h-0.27v1.02l-4.87,18.25
			c-1,3.73-4.38,6.33-8.24,6.34h-38.09c-4.71,0-8.53-3.82-8.53-8.53v-41.4c0.01-3.03,1.62-5.84,4.23-7.37L438.65,318.37z
			 M396.23,323.35l-24.36,14.21c-7.85,4.6-12.68,13.01-12.7,22.11v41.4c0.02,3.8,0.9,7.55,2.57,10.97l-16.25,16.25
			c-6.31-3.33-13.72-3.89-20.45-1.52v-0.1h-68.27v-20.91c38.9-24.53,63.99-65.94,67.69-111.78l63.22,25.29
			C390.62,320.45,393.47,321.81,396.23,323.35z M297.51,332.8h-98.54c-4.88-11.43-8.1-23.5-9.54-35.84l3.84,2.44
			c33.56,21.25,76.37,21.26,109.94,0l3.84-2.44C305.61,309.31,302.4,321.38,297.51,332.8z M288.7,349.87
			c-10.23,16.57-24.06,30.62-40.46,41.12c-16.4-10.5-30.22-24.56-40.46-41.12H288.7z M359.17,187.74c4.71,0,8.53,3.82,8.53,8.53
			v6.52c0.01,3.23-1.82,6.19-4.72,7.63l-12.35,6.18v-28.86H359.17z M222.64,34.14v42.67h17.07v-51.2c0-4.71,3.82-8.53,8.53-8.53
			c4.71,0,8.53,3.82,8.53,8.53v51.2h17.07V34.14c32.97,0.04,59.69,26.76,59.73,59.73v8.53H162.91v-8.53
			C162.95,60.9,189.67,34.18,222.64,34.14z M154.38,119.47h187.73c4.71,0,8.53,3.82,8.53,8.53c0,4.71-3.82,8.53-8.53,8.53H154.38
			c-4.71,0-8.53-3.82-8.53-8.53C145.84,123.29,149.66,119.47,154.38,119.47z M128.78,202.79v-6.52c0-4.71,3.82-8.53,8.53-8.53h8.53
			v28.86l-12.35-6.17C130.6,208.98,128.77,206.03,128.78,202.79z M162.91,153.6h170.66v64.09c0.07,26.27-13.36,50.74-35.56,64.79
			l-3.97,2.52c-27.97,17.72-63.65,17.71-91.62,0l-3.95-2.51c-22.2-14.05-35.63-38.52-35.57-64.79V153.6z M108.79,319.27l63.23-25.29
			c3.71,45.84,28.79,87.26,67.69,111.78v20.91h-93.87v-8.53c-0.06-38.9-29.16-71.63-67.79-76.22
			C86.22,331.89,96.79,324.1,108.79,319.27z M60.51,390.58c0.01-11.11,2.42-22.09,7.08-32.17h1.45
			c32.97,0.04,59.69,26.76,59.73,59.73v76.8H60.51V390.58z"/>
	</g>
</g>
</svg>
