<?xml version="1.0" encoding="iso-8859-1"?>
<!-- Generator: Adobe Illustrator 19.0.0, SVG Export Plug-In . SVG Version: 6.00 Build 0)  -->
<svg version="1.1" id="Capa_1" xmlns="http://www.w3.org/2000/svg" xmlns:xlink="http://www.w3.org/1999/xlink" x="0px" y="0px"
	 viewBox="0 0 512 512" style="enable-background:new 0 0 512 512;" xml:space="preserve">
<g>
	<g>
		<path d="M489.67,450.986h-20.437V202.77h20.436c4.562,0,8.258-3.696,8.258-8.258v-33.883c0-0.055-0.008-0.109-0.008-0.164
			c-0.003-0.178-0.012-0.355-0.026-0.531c-0.008-0.096-0.018-0.192-0.029-0.286c-0.019-0.159-0.044-0.316-0.073-0.473
			c-0.019-0.103-0.035-0.208-0.057-0.309c-0.032-0.143-0.07-0.284-0.109-0.426c-0.03-0.107-0.055-0.215-0.088-0.319
			c-0.053-0.166-0.116-0.328-0.18-0.49c-0.068-0.174-0.143-0.346-0.222-0.514c-0.053-0.112-0.103-0.226-0.162-0.336
			c-0.057-0.108-0.12-0.213-0.182-0.317c-0.066-0.113-0.132-0.226-0.204-0.336c-0.062-0.096-0.128-0.187-0.194-0.28
			c-0.083-0.116-0.166-0.229-0.255-0.341c-0.065-0.081-0.13-0.162-0.198-0.241c-0.1-0.117-0.204-0.229-0.309-0.34
			c-0.066-0.069-0.132-0.139-0.2-0.206c-0.116-0.113-0.237-0.221-0.36-0.327c-0.068-0.059-0.134-0.12-0.205-0.177
			c-0.129-0.105-0.264-0.203-0.401-0.299c-0.072-0.052-0.141-0.106-0.214-0.155c-0.135-0.09-0.279-0.173-0.421-0.255
			c-0.217-0.127-0.439-0.243-0.667-0.35c-0.07-0.033-0.137-0.07-0.208-0.101l-0.021-0.009c-0.029-0.012-0.056-0.024-0.085-0.036
			L297.054,68.115V45.161h22.488c3.891,0,7.256-2.717,8.073-6.523c0.818-3.804-1.131-7.665-4.68-9.263L259.393,0.731
			c-2.157-0.974-4.63-0.974-6.787,0l-63.542,28.646c-3.549,1.599-5.498,5.459-4.68,9.263c0.817,3.805,4.182,6.523,8.073,6.523
			h22.488v22.952l-91.565,39.7c-4.185,1.813-6.105,6.677-4.291,10.861c1.813,4.184,6.674,6.109,10.861,4.291l81.781-35.458
			l-44.197,39.165c-3.413,3.025-3.728,8.244-0.704,11.658c1.632,1.841,3.902,2.78,6.184,2.78c1.947,0,3.902-0.685,5.475-2.078
			l64.597-57.244h25.828l64.596,57.243c3.414,3.025,8.632,2.709,11.658-0.704c3.025-3.414,2.71-8.633-0.704-11.658l-44.196-39.164
			l149.595,64.861H62.135l36.928-16.012c4.185-1.813,6.107-6.677,4.291-10.861c-1.815-4.185-6.676-6.111-10.861-4.291l-73.344,31.8
			c-0.028,0.012-0.056,0.024-0.084,0.036l-0.021,0.009c-0.073,0.032-0.141,0.07-0.212,0.103c-0.227,0.107-0.448,0.221-0.664,0.348
			c-0.142,0.083-0.285,0.165-0.421,0.255c-0.074,0.048-0.142,0.104-0.214,0.155c-0.137,0.097-0.272,0.195-0.401,0.299
			c-0.07,0.057-0.137,0.118-0.205,0.177c-0.123,0.107-0.244,0.215-0.36,0.327c-0.068,0.067-0.134,0.137-0.2,0.206
			c-0.106,0.111-0.209,0.224-0.309,0.34c-0.068,0.079-0.133,0.16-0.198,0.241c-0.088,0.112-0.173,0.226-0.255,0.341
			c-0.066,0.092-0.131,0.185-0.193,0.28c-0.072,0.11-0.138,0.222-0.204,0.336c-0.062,0.105-0.124,0.209-0.182,0.317
			c-0.058,0.111-0.11,0.225-0.163,0.338c-0.076,0.162-0.149,0.325-0.215,0.492c-0.066,0.168-0.131,0.337-0.186,0.509
			c-0.033,0.105-0.059,0.213-0.088,0.319c-0.039,0.141-0.078,0.282-0.109,0.426c-0.022,0.102-0.04,0.206-0.058,0.309
			c-0.028,0.156-0.053,0.314-0.073,0.473c-0.011,0.095-0.021,0.19-0.029,0.286c-0.015,0.176-0.023,0.352-0.026,0.531
			c-0.001,0.055-0.008,0.109-0.008,0.164v33.883c0,4.562,3.696,8.258,8.258,8.258h20.437v248.216H22.33
			c-4.562,0-8.258,3.696-8.258,8.258v44.5c0,4.562,3.696,8.258,8.258,8.258h71.057c4.562,0,8.258-3.696,8.258-8.258
			s-3.696-8.258-8.258-8.258H30.588v-27.982h450.823v27.982H126.44c-4.562,0-8.258,3.696-8.258,8.258S121.878,512,126.44,512H489.67
			c4.562,0,8.258-3.696,8.258-8.258v-44.498C497.928,454.682,494.231,450.986,489.67,450.986z M280.537,65.276h-8.492h-32.092
			h-8.492V45.161h49.075V65.276z M230.869,28.645l25.13-11.329l25.13,11.329H230.869z M30.588,186.253v-17.367h450.823v17.367
			H30.588z M452.715,202.77v162.065H342.147V202.77H452.715z M85.129,450.986H59.283v-69.634h25.846V450.986z M127.49,450.986
			h-25.844v-69.634h25.844V450.986z M169.851,450.986h-25.846v-69.634h25.846V450.986z M169.851,364.837H59.283V202.77h110.568
			V364.837z M325.631,450.987H186.367V202.77h139.264V450.987z M367.993,450.986h-25.846v-69.634h25.846V450.986z M410.355,450.986
			h-25.846v-69.634h25.846V450.986z M452.716,450.986h-25.846v-69.634h25.846V450.986z"/>
	</g>
</g>
<g>
</g>
<g>
</g>
<g>
</g>
<g>
</g>
<g>
</g>
<g>
</g>
<g>
</g>
<g>
</g>
<g>
</g>
<g>
</g>
<g>
</g>
<g>
</g>
<g>
</g>
<g>
</g>
<g>
</g>
</svg>
