<?xml version="1.0"?>
<svg xmlns="http://www.w3.org/2000/svg" viewBox="0 0 64 64" width="512" height="512"><title>house-home-cottage-Apartment-Building</title><g id="Expand"><rect x="29" y="42" width="2" height="2"/><path d="M61.506,19.138,54,14.738V8h1a1,1,0,0,0,1-1V3a1,1,0,0,0-1-1H45a1,1,0,0,0-1,1V7a1,1,0,0,0,1,1h1v2.048L32.506,2.138a1,1,0,0,0-1.012,0l-29,17A1,1,0,0,0,2,20v5a1,1,0,0,0,1.506.862L6,24.4V50.556A3.987,3.987,0,0,0,4,54a3.871,3.871,0,0,0,.036.528A3.992,3.992,0,0,0,6,62H58a3.992,3.992,0,0,0,1.964-7.472A3.871,3.871,0,0,0,60,54a3.987,3.987,0,0,0-2-3.444V24.4l2.494,1.462A1,1,0,0,0,62,25V20A1,1,0,0,0,61.506,19.138ZM46,4h8V6H46Zm2,4h4v5.565L48,11.22ZM6,60a1.994,1.994,0,0,1-.519-3.92,1,1,0,0,0,.666-1.338A1.993,1.993,0,1,1,9.92,53.481a1,1,0,0,0,1.338.666,2.01,2.01,0,0,1,2.662,1.334,1,1,0,0,0,1.338.666A2,2,0,1,1,16,60Zm14-2H44a3.959,3.959,0,0,0,.556,2H19.444A3.959,3.959,0,0,0,20,58Zm17-6H27V34H37Zm2,2v2H25V54Zm19.519,2.08A1.994,1.994,0,0,1,58,60H48a2,2,0,1,1,.742-3.853,1,1,0,0,0,1.338-.666,2.009,2.009,0,0,1,2.662-1.334,1,1,0,0,0,1.338-.666,1.993,1.993,0,1,1,3.773,1.261,1,1,0,0,0,.666,1.338ZM56,50a4,4,0,0,0-3.472,2.036,4.012,4.012,0,0,0-4,2A3.871,3.871,0,0,0,48,54a3.987,3.987,0,0,0-3.444,2H41V53a1,1,0,0,0-1-1H39V33a1,1,0,0,0-1-1H26a1,1,0,0,0-1,1V52H24a1,1,0,0,0-1,1v3H19.444A3.987,3.987,0,0,0,16,54a3.871,3.871,0,0,0-.528.036,4.016,4.016,0,0,0-4-2A4,4,0,0,0,8,50V23.228L32,9.159,56,23.228Zm1.859-28L32.506,7.138a1,1,0,0,0-1.012,0L6.141,22,6,22.082,4,23.255V20.573L32,4.159,60,20.573v2.682l-2-1.173Z"/><rect x="7.769" y="6.621" width="16.228" height="1.999" transform="translate(-1.673 9.084) rotate(-30.397)"/><rect x="4.864" y="12.5" width="1.978" height="1.999" transform="translate(-6.026 4.817) rotate(-30.397)"/><path d="M26,22v5a1,1,0,0,0,1,1H37a1,1,0,0,0,1-1V22a6,6,0,0,0-12,0Zm5-3.858V21H28.142A3.991,3.991,0,0,1,31,18.142ZM28,23h3v3H28Zm5,3V23h3v3Zm2.858-5H33V18.142A3.991,3.991,0,0,1,35.858,21Z"/><path d="M43,44H53a1,1,0,0,0,1-1V33a1,1,0,0,0-1-1H43a1,1,0,0,0-1,1V43A1,1,0,0,0,43,44Zm1-2V40h8v2Zm8-8v4H44V34Z"/><path d="M21,32H11a1,1,0,0,0-1,1V43a1,1,0,0,0,1,1H21a1,1,0,0,0,1-1V33A1,1,0,0,0,21,32Zm-1,2v4H12V34Zm-8,8V40h8v2Z"/><rect x="60" y="32" width="2" height="14"/></g></svg>
